# xmcd
#
# Track frame offsets: 
#        150
#        15730
#        28242
#        42327
#        55607
#        69532
#        83652
#        109805
#        137827
#        153117
#        187012
#        199202
#        214675
#        228762
#        243607
#        260840
#        275042
#        293700
#        329737
#
# Disc length: 4667 seconds
#
# Revision: 3
# Processed by: cddbd v1.5.2PL0 Copyright (c) Steve Scherf et al.
# Submitted via: ExactAudioCopy v0.95b4
#
DISCID=20123913
DTITLE=Various Artist - One By One (The Best of Their Solo Years) Disc 1
DYEAR=1996
DGENRE=R&B
TTITLE0=David Ruffin - My Whole Ended The Moment You Left Me
TTITLE1=David Ruffin - I've Lost Everything I've Ever Had
TTITLE2=David Ruffin - I'm So Glad I Fell For You
TTITLE3=Dennis Edwards - Which Way To My Baby
TTITLE4=David Ruffin - The Double Cross
TTITLE5=Eddie Kendricks - It's So Hard For Me To Say Good-Bye
TTITLE6=Eddie Kendricks - This Used To Be the Home of Johnnie Mae
TTITLE7=Eddie Kendricks - Can I
TTITLE8=Eddie Kendricks - If You Let Me
TTITLE9=Eddie Kendricks - Girl You Need a Change of Mind
TTITLE10=Eddie Kendricks - Date With the Rain
TTITLE11=Eddie Kendricks - Eddie's Love
TTITLE12=Paul Williams - Feel Like Givin' Up(Previously Unreleased)
TTITLE13=Paul Williams - Once You Had a Heart(Previously Unreleased)
TTITLE14=David Ruffin - I Miss You(Pt. 1)
TTITLE15=David Ruffin - Common Man
TTITLE16=Eddie Kendricks - Darling Come Back Home
TTITLE17=Eddie Kendricks - Keep On Truckin'
TTITLE18=Eddie Kendricks - Tell Her Love Has Felt the Need
EXTD=
EXTT0=
EXTT1=
EXTT2=
EXTT3=
EXTT4=
EXTT5=
EXTT6=
EXTT7=
EXTT8=
EXTT9=
EXTT10=
EXTT11=
EXTT12=
EXTT13=
EXTT14=
EXTT15=
EXTT16=
EXTT17=
EXTT18=
PLAYORDER=
